<?xml version="1.0" encoding="UTF-8" standalone="no"?>
<!-- Created with Inkscape (http://www.inkscape.org/) -->

<svg
   xmlns:dc="http://purl.org/dc/elements/1.1/"
   xmlns:cc="http://creativecommons.org/ns#"
   xmlns:rdf="http://www.w3.org/1999/02/22-rdf-syntax-ns#"
   xmlns:svg="http://www.w3.org/2000/svg"
   xmlns="http://www.w3.org/2000/svg"
   xmlns:sodipodi="http://sodipodi.sourceforge.net/DTD/sodipodi-0.dtd"
   xmlns:inkscape="http://www.inkscape.org/namespaces/inkscape"
   width="232.09998"
   height="33.300011"
   viewBox="0 0 61.409785 8.8106279"
   version="1.1"
   id="svg532"
   inkscape:version="0.92.0 r15299"
   sodipodi:docname="blue ridge.svg">
  <defs
     id="defs526">
	
	

		
		
		
		
		
		
		
		
		
		
	
		
		
	</defs>
  <sodipodi:namedview
     id="base"
     pagecolor="#ffffff"
     bordercolor="#666666"
     borderopacity="1.0"
     inkscape:pageopacity="0.0"
     inkscape:pageshadow="2"
     inkscape:zoom="3.8983051"
     inkscape:cx="115.05"
     inkscape:cy="15.650006"
     inkscape:document-units="mm"
     inkscape:current-layer="layer1"
     showgrid="false"
     fit-margin-top="0"
     fit-margin-left="0"
     fit-margin-right="0"
     fit-margin-bottom="0"
     units="px"
     inkscape:window-width="1280"
     inkscape:window-height="744"
     inkscape:window-x="-4"
     inkscape:window-y="-4"
     inkscape:window-maximized="1" />
  <metadata
     id="metadata529">
    <rdf:RDF>
      <cc:Work
         rdf:about="">
        <dc:format>image/svg+xml</dc:format>
        <dc:type
           rdf:resource="http://purl.org/dc/dcmitype/StillImage" />
        <dc:title></dc:title>
      </cc:Work>
    </rdf:RDF>
  </metadata>
  <g
     inkscape:label="Layer 1"
     inkscape:groupmode="layer"
     id="layer1"
     transform="translate(198.26174,-194.81225)">
    <g
       id="g624"
       transform="translate(0.2645826,-0.26457555)">
      <polygon
         transform="matrix(0.26458333,0,0,0.26458333,-198.26174,195.34141)"
         style="fill:#00b085"
         points="28.6,24.6 50.7,8.4 68,24.6 77,24.6 50.8,0 24.5,24.6 "
         id="polygon534" />
      <polygon
         transform="matrix(0.26458333,0,0,0.26458333,-198.26174,195.34141)"
         style="fill:#00b085"
         points="27.2,18.5 31.7,14.2 21.4,4.5 0,24.6 4.3,24.6 20.8,12.5 "
         id="polygon536" />
      <path
         style="fill:#00a8e1;stroke-width:0.26458332"
         inkscape:connector-curvature="0"
         d="m -176.01028,201.79724 v -6.45583 h 1.45521 1.05833 c 0.76729,0 1.34937,0.15875 1.66687,0.47625 0.34396,0.3175 0.50271,0.71437 0.50271,1.16417 0,0.39687 -0.10583,0.71437 -0.34396,0.92604 -0.21166,0.21166 -0.5027,0.37041 -0.87312,0.47625 0.52917,0.13229 0.89958,0.34396 1.13771,0.60854 0.23812,0.26458 0.34396,0.60854 0.34396,1.00542 0,0.5027 -0.21167,0.92604 -0.60855,1.27 -0.39687,0.34395 -0.97895,0.5027 -1.7727,0.5027 h -1.32292 -1.24354 z m 1.32291,-3.86291 h 0.50271 c 0.55563,0 0.97896,-0.0529 1.19063,-0.18521 0.23812,-0.13229 0.34396,-0.3175 0.34396,-0.60854 0,-0.26459 -0.10584,-0.4498 -0.29105,-0.60855 -0.1852,-0.13229 -0.52916,-0.21166 -0.97895,-0.21166 h -0.26459 -0.50271 z m 0,2.8575 h 0.50271 c 0.76729,0 1.27,-0.0794 1.48167,-0.26459 0.21167,-0.18521 0.3175,-0.39687 0.3175,-0.68791 0,-0.26459 -0.10583,-0.47625 -0.3175,-0.66146 -0.21167,-0.18521 -0.52917,-0.26459 -0.9525,-0.26459 h -0.52917 -0.50271 z"
         id="path540" />
      <rect
         style="fill:#00a8e1;stroke-width:0.26458332"
         x="-170.69215"
         y="195.36787"
         width="1.2170833"
         height="6.455833"
         id="rect542" />
      <path
         style="fill:#00a8e1;stroke-width:0.26458332"
         inkscape:connector-curvature="0"
         d="m -169.05174,197.27287 h 1.21708 v 2.19604 0.55562 c 0,0.37042 0.0794,0.66146 0.23813,0.84667 0.15875,0.18521 0.37041,0.26458 0.60854,0.26458 0.3175,0 0.55562,-0.10583 0.74083,-0.29104 0.18521,-0.21166 0.29104,-0.58208 0.29104,-1.11125 v -0.15875 -2.30187 h 1.21709 v 4.55083 h -1.19063 v -0.66146 c -0.15875,0.23813 -0.34396,0.42334 -0.60854,0.55563 -0.23812,0.13229 -0.55562,0.21166 -0.89958,0.21166 -0.55563,0 -0.9525,-0.15875 -1.24354,-0.44979 -0.26459,-0.29104 -0.39688,-0.74083 -0.39688,-1.32291 v -0.50271 -2.38125 z"
         id="path544" />
      <path
         style="fill:#00a8e1;stroke-width:0.26458332"
         inkscape:connector-curvature="0"
         d="m -163.15153,199.81287 c 0,0.87312 0.3175,1.29646 0.92604,1.29646 0.21167,0 0.39687,-0.0794 0.55562,-0.21167 0.15875,-0.13229 0.23813,-0.37042 0.23813,-0.635 h 1.21708 c 0,0.50271 -0.18521,0.89958 -0.52916,1.21708 -0.37042,0.29104 -0.84667,0.44979 -1.45521,0.44979 -0.71438,0 -1.27,-0.21166 -1.61396,-0.60854 -0.37042,-0.39687 -0.55563,-0.97896 -0.55563,-1.71979 0,-0.76729 0.18521,-1.34937 0.58209,-1.79917 0.39687,-0.42333 0.92604,-0.66145 1.64041,-0.66145 0.635,0 1.13771,0.21166 1.50813,0.60854 0.37042,0.39687 0.52917,1.00541 0.52917,1.79916 v 0.29105 h -3.04271 z m 0.0265,-0.74084 h 1.7727 c -0.0529,-0.74083 -0.34395,-1.1377 -0.87312,-1.1377 -0.26458,0 -0.47625,0.10583 -0.66146,0.29104 -0.13229,0.18521 -0.21167,0.47625 -0.23812,0.84666"
         id="path546" />
      <path
         style="fill:#00a8e1;stroke-width:0.26458332"
         inkscape:connector-curvature="0"
         d="m -158.23028,201.79724 v -6.45583 h 1.79916 0.92605 c 0.79375,0 1.37583,0.15875 1.71979,0.47625 0.37041,0.3175 0.52916,0.71437 0.52916,1.21708 0,0.42334 -0.13229,0.76729 -0.37041,1.03188 -0.23813,0.26458 -0.58209,0.44979 -0.97896,0.52916 0.3175,0.0265 0.55562,0.1323 0.76729,0.3175 0.21167,0.18521 0.34396,0.55563 0.39688,1.11125 0.10583,1.00542 0.23812,1.61396 0.39687,1.79917 h -1.42875 c -0.0794,-0.26458 -0.15875,-0.76729 -0.23812,-1.45521 -0.0529,-0.47625 -0.1323,-0.79375 -0.26459,-0.9525 -0.13229,-0.15875 -0.39687,-0.23812 -0.79375,-0.23812 h -0.42333 -0.68792 v 2.61937 z m 1.34937,-3.62479 h 0.82021 c 0.50271,0 0.87313,-0.0794 1.13771,-0.23812 0.23812,-0.15875 0.37042,-0.39688 0.37042,-0.71438 0,-0.26458 -0.0794,-0.47625 -0.26459,-0.635 -0.18521,-0.15875 -0.47625,-0.23812 -0.87312,-0.23812 h -0.50271 -0.66146 v 1.82562 z"
         id="path548" />
      <rect
         style="fill:#00a8e1;stroke-width:0.26458332"
         x="-152.7534"
         y="197.27287"
         width="1.2170833"
         height="4.5508337"
         id="rect550" />
      <path
         style="fill:#00a8e1;stroke-width:0.26458332"
         inkscape:connector-curvature="0"
         d="m -147.93799,197.6962 v -2.32833 h 1.21708 v 6.45583 h -1.13771 v -0.71437 c -0.13229,0.23812 -0.29104,0.44979 -0.52916,0.58208 -0.23813,0.15875 -0.50271,0.23812 -0.84667,0.23812 -0.58208,0 -1.05833,-0.21166 -1.40229,-0.60854 -0.34396,-0.42333 -0.52917,-1.00541 -0.52917,-1.71979 0,-0.71437 0.15875,-1.29646 0.50271,-1.74625 0.34396,-0.44979 0.82021,-0.68792 1.42875,-0.68792 0.23813,0 0.47625,0.0529 0.68792,0.1323 0.21166,0.0529 0.42333,0.1852 0.60854,0.39687 m -2.01083,1.905 c 0,0.47625 0.0794,0.84667 0.26458,1.11125 0.18521,0.26458 0.42333,0.39688 0.76729,0.39688 0.3175,0 0.55563,-0.1323 0.74083,-0.39688 0.18521,-0.26458 0.29105,-0.66146 0.29105,-1.21708 0,-0.50271 -0.0794,-0.89959 -0.23813,-1.16417 -0.15875,-0.26458 -0.42333,-0.39687 -0.74083,-0.39687 -0.34396,0 -0.58209,0.13229 -0.76729,0.42333 -0.21167,0.29104 -0.3175,0.68792 -0.3175,1.24354"
         id="path552" />
      <path
         style="fill:#00a8e1;stroke-width:0.26458332"
         inkscape:connector-curvature="0"
         d="m -146.19174,202.11474 h 1.21708 c 0.0529,0.47625 0.3175,0.71438 0.76729,0.71438 0.26459,0 0.50271,-0.0794 0.68792,-0.26459 0.18521,-0.1852 0.26458,-0.44979 0.26458,-0.84666 v -0.635 c -0.34395,0.42333 -0.76729,0.66146 -1.29645,0.66146 -0.58209,0 -1.03188,-0.21167 -1.37584,-0.635 -0.34396,-0.42334 -0.50271,-0.97896 -0.50271,-1.66688 0,-0.66146 0.18521,-1.21708 0.52917,-1.64042 0.34396,-0.42333 0.82021,-0.635 1.40229,-0.635 0.3175,0 0.58209,0.0529 0.79375,0.21167 0.21167,0.13229 0.37042,0.26458 0.44979,0.39688 v -0.50271 h 1.21709 v 4.07458 0.23813 c 0,0.76729 -0.18521,1.29645 -0.58209,1.5875 -0.37041,0.29104 -0.89958,0.44979 -1.53458,0.44979 -0.60854,0 -1.11125,-0.13229 -1.48167,-0.37042 -0.37041,-0.23812 -0.55562,-0.635 -0.55562,-1.13771 m 1.03187,-2.69875 c 0,0.42334 0.0794,0.79375 0.23813,1.08479 0.15875,0.29105 0.42333,0.42334 0.74083,0.42334 0.29104,0 0.50271,-0.13229 0.71438,-0.37042 0.18521,-0.23812 0.29104,-0.60854 0.29104,-1.08479 0,-0.47625 -0.0794,-0.84667 -0.26458,-1.11125 -0.15875,-0.29104 -0.42334,-0.42333 -0.74084,-0.42333 -0.29104,0 -0.52916,0.13229 -0.71437,0.37041 -0.18521,0.26459 -0.26459,0.635 -0.26459,1.11125"
         id="path554" />
      <path
         style="fill:#00a8e1;stroke-width:0.26458332"
         inkscape:connector-curvature="0"
         d="m -140.42382,199.81287 c 0,0.87312 0.3175,1.29646 0.92604,1.29646 0.21166,0 0.39687,-0.0794 0.55562,-0.21167 0.15875,-0.13229 0.23813,-0.37042 0.23813,-0.635 h 1.21708 c 0,0.50271 -0.18521,0.89958 -0.52917,1.21708 -0.37041,0.29104 -0.84666,0.44979 -1.4552,0.44979 -0.71438,0 -1.27,-0.21166 -1.61396,-0.60854 -0.37042,-0.39687 -0.55563,-0.97896 -0.55563,-1.71979 0,-0.76729 0.18521,-1.34937 0.58209,-1.79917 0.39687,-0.42333 0.92604,-0.66145 1.64041,-0.66145 0.635,0 1.13771,0.21166 1.50813,0.60854 0.37041,0.39687 0.52916,1.00541 0.52916,1.79916 v 0.29105 h -3.0427 z m 0,-0.74084 h 1.7727 c -0.0529,-0.74083 -0.34395,-1.1377 -0.87312,-1.1377 -0.26458,0 -0.47625,0.10583 -0.66146,0.29104 -0.10583,0.18521 -0.21167,0.47625 -0.23812,0.84666"
         id="path556" />
      <path
         style="fill:#00a8e1;stroke-width:0.26458332"
         inkscape:connector-curvature="0"
         d="m -151.37757,195.94995 c 0,0.34396 -0.26459,0.60854 -0.60855,0.60854 -0.34395,0 -0.60854,-0.26458 -0.60854,-0.60854 0,-0.34396 0.26459,-0.60854 0.60854,-0.60854 0.3175,0 0.60855,0.26458 0.60855,0.60854"
         id="path558" />
    </g>
  </g>
</svg>
