<?xml version="1.0" encoding="utf-8"?>
<!-- Generator: Adobe Illustrator 12.0.0, SVG Export Plug-In . SVG Version: 6.00 Build 51448)  -->
<!DOCTYPE svg PUBLIC "-//W3C//DTD SVG 1.1//EN" "http://www.w3.org/Graphics/SVG/1.1/DTD/svg11.dtd" [
	<!ENTITY ns_svg "http://www.w3.org/2000/svg">
	<!ENTITY ns_xlink "http://www.w3.org/1999/xlink">
]>
<svg  version="1.1" id="Layer_1" xmlns="&ns_svg;" xmlns:xlink="&ns_xlink;" width="175.748" height="18.021"
	 viewBox="0 0 175.748 18.021" overflow="visible" enable-background="new 0 0 175.748 18.021" xml:space="preserve">
<g>
	<polygon fill-rule="evenodd" clip-rule="evenodd" fill="#000000" points="3.258,17.374 3.103,17.374 7.756,0 7.911,0 3.258,17.374 
			"/>
	<polygon fill-rule="evenodd" clip-rule="evenodd" fill="#000000" points="9.85,0 5.429,17.374 5.197,17.374 9.695,0 9.85,0 	"/>
	<polygon fill-rule="evenodd" clip-rule="evenodd" fill="#000000" points="9.229,17.374 8.842,17.374 13.418,0.078 13.728,0.078 
		9.229,17.374 	"/>
	<path fill-rule="evenodd" clip-rule="evenodd" fill="#000000" d="M15.046,17.374h-0.388L19.234,0c0,0,0,0,0.388,0.078
		L15.046,17.374L15.046,17.374z"/>
	<path fill-rule="evenodd" clip-rule="evenodd" fill="#000000" d="M20.243,17.374h-0.465C19.7,17.374,24.354,0,24.354,0.078h0.62
		L20.243,17.374L20.243,17.374z"/>
	<path fill-rule="evenodd" clip-rule="evenodd" fill="#000000" d="M132.548,1.706c0.854,0.311,1.396-0.698,1.706-1.085h9.928
		c-0.077,0-0.311,0.465-0.311,0.465c-0.775,0-1.628,0.232-1.938,1.085l-4.11,14.271c0,0.389,0.697,0.697,1.318,0.697h0.543
		l-0.232,0.467h-9.308l0.311-0.467c0,0,0.697,0.078,1.241-0.232c0.62-0.311,1.008-0.775,1.24-1.473l3.567-12.487
		c0.155-0.621,0.155-1.551-0.542-1.707l-1.319-0.232c-0.62,1.784-1.008,3.645-1.474,5.429h-0.697
		c0.31-1.784-0.311-3.568-1.861-4.421c-0.931-0.543-2.017-0.388-2.947-0.078c-0.854,0.31-1.552,1.008-1.862,1.861
		c-0.232,0.698-0.077,1.551,0.621,2.017c2.481,1.629,6.593,2.481,6.67,6.282c0.077,2.404-2.017,4.422-4.033,5.275
		c-2.869,1.162-5.816,0.154-8.531-0.621c-0.543-0.156-0.854,0.697-1.318,0.854h-9.385c0.232-0.467,0.232-0.467,0.232-0.467
		c0.543,0,1.318-0.154,1.707-0.697l0.697-1.318l3.801-12.72c0.077-0.465,0.388-1.318-0.466-1.318c-0.775,0-2.017,1.706-2.56,2.714
		l-8.996,13.806h-3.956l0.078-15.9c0-0.31-0.078-0.543-0.466-0.543h-0.388l-1.163,4.421c0.077,0-0.621,0-0.621,0
		c0-0.853,0.388-1.706-0.077-2.482c-0.854-1.318-2.404-1.318-3.801-1.318l-1.938,6.282c1.163,0.078,2.637,0.311,3.49-0.543
		c0.388-0.388,0.62-1.085,0.62-1.085h0.621l-1.474,4.886h-0.466c0.155-0.775,0.232-2.017-0.62-1.938l-2.404-0.155l-2.095,7.059
		c2.482,0.232,5.042,0.154,6.825-1.475c0.543-0.543,0.775-1.162,1.086-1.783h0.62l-1.473,4.576H69.958
		c0.078,0,0.233-0.467,0.233-0.467s0.775-0.076,1.085-0.387c0.621-0.389,1.241-0.932,1.474-1.629l3.801-13.107
		c0.078-0.543-0.311-0.854-0.776-0.931h-0.853l0.232-0.465h8.842l-0.232,0.465c-0.311,0-0.698-0.078-1.086,0.232
		c-0.854,0.388-1.241,1.241-1.474,2.094l-3.646,12.875c2.56,0.076,4.033-0.543,5.274-2.25l0.466-1.008h0.542l-1.163,3.877
		c0.465,0.078,1.163-0.154,1.474-0.619c0.31-0.389,0.621-1.242,0.621-1.242l3.722-12.952c0.156-0.388-0.154-0.931-0.62-1.008h-1.008
		l0.233-0.465h20.631l-0.155,0.465c-0.698,0-2.172-0.078-2.095,0.853v11.402l6.98-10.782c0.388-0.62,0.078-1.085-0.543-1.318
		c-0.388-0.155-1.318-0.155-1.318-0.155l0.155-0.465h13.03c-0.311,0.465-0.232,0.465-0.311,0.465c-0.543,0-1.861,0.077-2.172,1.241
		l-4.033,14.038c-0.154,0.232,0.078,0.621,0.543,0.621h0.775l1.164-5.119h0.62c-0.077,1.861,0.62,3.49,2.172,4.422
		c1.086,0.543,2.481,0.619,3.646,0.309c0.931-0.309,1.706-1.086,2.016-1.938c0.155-0.775-0.077-1.475-0.465-2.018
		c-1.784-2.326-5.972-1.551-6.515-5.119c-0.388-2.404,0.853-4.498,2.715-5.817C126.343,0.078,130.222,0,132.548,1.706L132.548,1.706
		z"/>
	<path fill-rule="evenodd" clip-rule="evenodd" fill="#000000" d="M165.355,0.621l3.878,11.867l3.103-10.316
		c0.077-0.465-0.311-1.085-0.854-1.085h-0.775l0.155-0.465h4.886l-0.155,0.465c-0.543,0-1.706,0.155-2.094,1.396l-4.498,15.125
		h-2.947c-1.474-4.344-2.947-8.688-4.576-13.031l-3.335,10.859c-0.311,0.854,0.155,1.705,0.775,1.705c0.311,0,0.931,0,0.931,0
		c0-0.076-0.155,0.467-0.078,0.467h-5.352l0.155-0.467c0,0,0.931-0.076,1.396-0.309c0.543-0.234,0.698-0.311,0.931-0.932
		l3.801-13.417c0.154-0.621-0.155-1.396-0.854-1.396c0,0-0.854-0.078-0.854,0l0.155-0.465H165.355L165.355,0.621z"/>
	<path fill-rule="evenodd" clip-rule="evenodd" fill="#000000" d="M157.134,2.327c1.939,2.56,1.474,6.825,0.078,9.54
		c-1.939,3.568-5.507,6.049-9.463,6.127c-2.404,0.156-4.498-0.311-6.127-2.094c-1.861-2.559-1.24-6.515-0.077-9.152
		c2.404-4.421,7.368-6.903,12.409-6.127C155.195,0.853,156.281,1.318,157.134,2.327L157.134,2.327z M150.076,2.249
		c-2.947,2.094-3.801,5.352-4.809,8.453c-0.311,1.785-1.086,4.268,0.311,5.818c0.62,0.387,1.163,0.697,1.938,0.543
		c3.49-1.008,4.576-4.809,5.43-7.679c0.62-2.25,1.396-5.042,0-7.136C152.171,1.551,150.774,1.784,150.076,2.249L150.076,2.249z
		 M43.976,1.396c0.775,0.232,1.241-0.31,1.551-0.775c0.155-0.155,0.233-0.388,0.233-0.388h0.543l-1.396,6.282h-0.931
		c-0.078-1.784,0.077-3.956-1.707-4.731c-2.249-0.698-4.11,1.008-5.429,2.792c-1.939,2.947-3.491,6.593-2.25,10.316
		c0.31,0.543,0.853,1.086,1.474,1.24c4.499,0.621,7.756-3.645,10.16-6.902l5.662-8.609h3.413l0.31,15.511
		c0.078,0.232,0,0.854,0.233,1.008h0.621l4.421-14.968c0.077-0.465-0.078-0.853-0.465-1.085h-1.707l0.155-0.465h12.099
		c1.318,0.31,2.637,1.474,2.87,2.947c0.155,1.319-0.465,2.327-1.241,3.335c-1.086,1.008-2.25,1.862-3.568,2.017
		c1.086,0.466,2.327,1.24,2.947,2.404c0.621,1.396,0.155,3.18-0.931,4.344c-1.861,1.861-4.499,1.939-7.058,1.939H47.932
		l-0.078-0.467c1.008,0,2.327-0.154,2.637-1.24V13.03h-5.119c-0.698,0.854-1.784,1.939-1.939,3.334c0,0.543,1.008,0.775,1.861,0.775
		l-0.233,0.467h-5.739c-0.077,0,0.233-0.467,0.233-0.467c0.853,0,1.163-0.387,1.163-0.387c0.854-0.543,1.629-1.396,1.939-2.25
		c-2.87,2.404-6.825,4.498-10.858,2.715c-2.56-1.473-3.025-4.576-2.637-7.367c0.853-3.879,4.111-7.989,8.066-9.075
		C39.478,0,42.114,0.078,43.976,1.396L43.976,1.396z M66.158,1.706l-1.939,6.438c1.086,0.155,1.861-0.31,2.637-0.698
		c1.551-1.086,2.559-2.637,2.327-4.499C68.717,1.706,67.088,1.396,66.158,1.706L66.158,1.706z M50.413,11.634l0.078-6.67
		l-4.266,6.67H50.413L50.413,11.634z M63.909,9.462c0,0.077-2.017,6.902-2.017,6.902c1.396,0.156,2.482-0.465,3.49-1.008
		c1.241-0.93,2.327-2.172,2.095-3.877C67.011,10.005,65.305,9.54,63.909,9.462L63.909,9.462z"/>
	<polygon fill-rule="evenodd" clip-rule="evenodd" fill="#000000" points="21.251,17.374 20.708,17.374 25.284,0 25.905,0 
		21.251,17.374 	"/>
	<polygon fill-rule="evenodd" clip-rule="evenodd" fill="#000000" points="22.182,17.374 21.717,17.374 26.292,0 26.913,0 
		22.182,17.374 	"/>
	<polygon fill-rule="evenodd" clip-rule="evenodd" fill="#000000" points="23.19,17.374 22.647,17.374 27.223,0 27.844,0 
		23.19,17.374 	"/>
	<polygon fill-rule="evenodd" clip-rule="evenodd" fill="#000000" points="24.121,17.374 23.655,17.374 28.231,0 28.852,0 
		24.121,17.374 	"/>
	<polygon fill-rule="evenodd" clip-rule="evenodd" fill="#000000" points="25.129,17.374 24.664,17.374 29.24,0 29.86,0 
		25.129,17.374 	"/>
	<path fill-rule="evenodd" clip-rule="evenodd" fill="#000000" d="M16.055,17.374h-0.388L20.166,0c0,0.078,0,0,0.465,0
		L16.055,17.374L16.055,17.374z"/>
	<path fill-rule="evenodd" clip-rule="evenodd" fill="#000000" d="M17.063,17.374h-0.388L21.173,0c0,0.078,0.078,0,0.466,0
		L17.063,17.374L17.063,17.374z"/>
	<path fill-rule="evenodd" clip-rule="evenodd" fill="#000000" d="M17.994,17.374h-0.388L22.182,0c0,0.078,0,0,0.388,0
		L17.994,17.374L17.994,17.374z"/>
	<path fill-rule="evenodd" clip-rule="evenodd" fill="#000000" d="M18.924,17.374h-0.388L23.113,0c0,0.078,0,0,0.465,0
		L18.924,17.374L18.924,17.374z"/>
	<path fill-rule="evenodd" clip-rule="evenodd" fill="#000000" d="M14.116,17.374h-0.388L18.304,0c0,0.078,0,0,0.388,0
		L14.116,17.374L14.116,17.374z"/>
	<polygon fill-rule="evenodd" clip-rule="evenodd" fill="#000000" points="10.083,17.374 9.695,17.374 14.271,0.078 14.581,0.078 
		10.083,17.374 	"/>
	<polygon fill-rule="evenodd" clip-rule="evenodd" fill="#000000" points="11.014,17.374 10.626,17.374 15.124,0.078 15.512,0.078 
		11.014,17.374 	"/>
	<polygon fill-rule="evenodd" clip-rule="evenodd" fill="#000000" points="11.944,17.374 11.557,17.374 16.055,0.078 16.365,0.078 
		11.944,17.374 	"/>
	<polygon fill-rule="evenodd" clip-rule="evenodd" fill="#000000" points="12.797,17.374 12.41,17.374 16.985,0.078 17.296,0.078 
		12.797,17.374 	"/>
	<polygon fill-rule="evenodd" clip-rule="evenodd" fill="#000000" points="9.074,0.078 4.576,17.374 4.343,17.374 8.919,0.078 
		9.074,0.078 	"/>
	<path fill-rule="evenodd" clip-rule="evenodd" fill="#000000" d="M10.626,0.078c0.077,0-4.421,17.296-4.421,17.296H5.972
		L10.47,0.078H10.626L10.626,0.078z"/>
	<path fill-rule="evenodd" clip-rule="evenodd" fill="#000000" d="M11.479,0.078c0.078,0-4.421,17.296-4.421,17.296H6.825
		l4.499-17.296H11.479L11.479,0.078z"/>
	<polygon fill-rule="evenodd" clip-rule="evenodd" fill="#000000" points="12.332,0.078 7.911,17.374 7.678,17.374 12.177,0.078 
		12.332,0.078 	"/>
	<polygon fill-rule="evenodd" clip-rule="evenodd" fill="#000000" points="2.482,17.374 2.327,17.374 6.98,0 7.136,0 2.482,17.374 	
		"/>
	<polygon fill-rule="evenodd" clip-rule="evenodd" fill="#000000" points="1.706,17.374 1.551,17.374 6.205,0 6.282,0 1.706,17.374 
			"/>
	<polygon fill-rule="evenodd" clip-rule="evenodd" fill="#000000" points="0.854,17.374 0.698,17.374 5.352,0.078 5.507,0.078 
		0.854,17.374 	"/>
	<polygon fill-rule="evenodd" clip-rule="evenodd" fill="#000000" points="0.155,17.374 0,17.374 4.576,0.078 4.731,0.078 
		0.155,17.374 	"/>
</g>
</svg>
