<?xml version="1.0" encoding="UTF-8" standalone="no"?>
<!-- Generator: Adobe Illustrator 16.0.0, SVG Export Plug-In . SVG Version: 6.00 Build 0)  -->

<svg
   xmlns:dc="http://purl.org/dc/elements/1.1/"
   xmlns:cc="http://creativecommons.org/ns#"
   xmlns:rdf="http://www.w3.org/1999/02/22-rdf-syntax-ns#"
   xmlns:svg="http://www.w3.org/2000/svg"
   xmlns="http://www.w3.org/2000/svg"
   xmlns:sodipodi="http://sodipodi.sourceforge.net/DTD/sodipodi-0.dtd"
   xmlns:inkscape="http://www.inkscape.org/namespaces/inkscape"
   version="1.1"
   id="Layer_1"
   x="0px"
   y="0px"
   width="965.54602"
   height="259.54599"
   viewBox="0 0 965.54602 259.546"
   enable-background="new 0 0 1000 259.546"
   xml:space="preserve"
   inkscape:version="0.91 r13725"
   sodipodi:docname="Comcast.svg"><metadata
     id="metadata29"><rdf:RDF><cc:Work
         rdf:about=""><dc:format>image/svg+xml</dc:format><dc:type
           rdf:resource="http://purl.org/dc/dcmitype/StillImage" /><dc:title></dc:title></cc:Work></rdf:RDF></metadata><defs
     id="defs27" /><sodipodi:namedview
     pagecolor="#ffffff"
     bordercolor="#666666"
     borderopacity="1"
     objecttolerance="10"
     gridtolerance="10"
     guidetolerance="10"
     inkscape:pageopacity="0"
     inkscape:pageshadow="2"
     inkscape:window-width="1680"
     inkscape:window-height="931"
     id="namedview25"
     showgrid="false"
     inkscape:zoom="7.0144993"
     inkscape:cx="958.52867"
     inkscape:cy="98.622516"
     inkscape:window-x="0"
     inkscape:window-y="1"
     inkscape:window-maximized="1"
     inkscape:current-layer="g3" /><g
     id="g3"><path
       d="M 231.084,210.813 C 207.316,240.505 170.745,259.545 129.743,259.545 58.094,259.546 0,201.455 0,129.75 0,58.139 58.094,0 129.744,0 c 41.001,0 77.573,19.069 101.341,48.747 l -4.21,2.549 C 206.119,29.48 176.784,15.839 144.271,15.839 c -62.926,0 -113.942,51.023 -113.942,113.958 0,62.902 51.017,113.941 113.942,113.941 32.514,0 61.879,-13.638 82.635,-35.55 l 4.178,2.625 z"
       id="path5"
       inkscape:connector-curvature="0"
       style="fill:#ffffff" /><path
       d="m 269.985,67.743 c -40.737,0 -64.147,27.354 -64.147,62.007 0,34.715 23.214,62.01 64.147,62.01 38.924,0 62.797,-27.038 62.797,-62.01 0.001,-34.653 -23.872,-62.007 -62.797,-62.007 m 0,101.365 c -23.13,0 -38.453,-17.964 -38.453,-39.358 0,-21.39 15.475,-39.387 38.453,-39.387 19.937,0 37.119,16.704 37.119,39.434 0,22.212 -16.75,39.311 -37.119,39.311"
       id="path7"
       inkscape:connector-curvature="0"
       style="fill:#ffffff" /><path
       d="m 625.768,153.177 c -2.337,3.322 -11.453,15.914 -32.071,15.914 -22.272,0 -38.477,-16.857 -38.477,-39.326 0,-22.697 16.508,-39.385 38.477,-39.385 20.708,0 30.417,13.458 31.981,15.719 L 644.732,94.4 c -1.485,-2.639 -14.942,-26.641 -51.035,-26.641 -39.009,0 -64.117,25.487 -64.117,62.006 0,36.354 24.973,62.023 64.117,62.023 35.636,0 49.081,-23.272 51.218,-26.763 l -19.147,-11.848 z"
       id="path9"
       inkscape:connector-curvature="0"
       style="fill:#ffffff" /><path
       d="m 179.234,154.313 c -2.481,3.522 -12.069,16.75 -33.697,16.75 -23.335,0 -40.396,-17.689 -40.396,-41.298 0,-23.834 17.327,-41.359 40.396,-41.359 21.719,0 31.959,14.125 33.561,16.508 L 199.14,92.625 c -1.6,-2.791 -15.696,-27.961 -53.603,-27.961 -40.966,0 -67.333,26.764 -67.333,65.102 0,38.158 26.239,65.104 67.318,65.104 37.429,0 51.532,-24.427 53.8,-28.1 l -20.088,-12.457 z"
       id="path11"
       inkscape:connector-curvature="0"
       style="fill:#ffffff" /><path
       d="m 938.373,69.896 0.79,-33.271 -25.674,13.017 -0.725,20.254 -19.119,0 0,19.892 19.119,0 0,67.243 c 0,23.927 13.624,34.729 31.706,34.729 10.32,0 16.722,-2.004 17.965,-2.354 l 3.111,-20.298 c -0.896,0.179 -5.962,1.622 -11.592,1.622 -10.03,0 -15.582,-3.779 -15.582,-15.507 l 0,-65.435 24.791,0 0,-19.892 -24.79,0 z"
       id="path13"
       inkscape:connector-curvature="0"
       style="fill:#ffffff" /><path
       d="m 754.231,69.896 c 0,0 -0.229,11.896 -0.258,13.823 l -0.336,0 c -2.168,-2.187 -14.078,-15.977 -38.201,-15.977 -36.05,0 -62.509,24.381 -62.509,62.054 0,35.64 24.744,61.963 62.599,61.963 22.791,0 35.168,-12.835 38.111,-15.946 l 0.336,0 c 0.028,0.15 0.258,13.774 0.258,13.774 l 25.987,0 0,-119.691 -25.987,0 z m -36.126,99.212 c -24.898,0 -39.537,-18.071 -39.537,-39.312 0,-23.138 16.354,-39.434 39.598,-39.434 24.73,0 39.54,18.054 39.54,39.434 0,21.209 -14.871,39.312 -39.601,39.312"
       id="path15"
       inkscape:connector-curvature="0"
       style="fill:#ffffff" /><path
       d="m 488.317,189.635 0,-74.995 c 0,-15.75 -8.344,-24.837 -22.18,-24.837 -14.156,0 -21.969,9.513 -21.969,24.837 l 0,74.995 -25.604,0 0,-74.995 c 0,-15.764 -8.209,-24.837 -22.083,-24.837 -14.117,0 -22.074,9.483 -22.074,24.837 l 0,74.995 -25.604,0 0,-119.739 24.162,0 0.227,11.365 0.47,0 c 1.707,-2.019 11.418,-13.503 29.844,-13.503 21.301,0 29.305,14.171 31.148,17.189 2.52,-3.172 12.76,-17.189 35.298,-17.189 27.249,0 43.728,16.992 43.728,41.387 l 0,80.489 -25.363,0 z"
       id="path17"
       inkscape:connector-curvature="0"
       style="fill:#ffffff" /><path
       d="m 853.651,118.813 c 20.212,6.916 33.015,17.339 33.015,35.579 0,25.001 -21.451,37.368 -49.218,37.368 -25.305,0 -38.962,-7.98 -43.27,-10.577 l 9.984,-19.525 c 2.668,1.364 15.899,9.209 34.317,9.209 12.989,0 22.455,-5.551 22.455,-13.928 0,-7.463 -4.976,-12.078 -18.025,-16.433 l -13.653,-4.7 c -15.917,-5.462 -29.495,-15.75 -29.495,-34.201 0,-20.89 18.39,-33.817 43.695,-33.817 22.319,0 34.35,7.314 38.658,9.954 l -9.802,18.449 c -2.215,-1.076 -13.532,-7.51 -29.492,-7.51 -12.32,0 -17.45,5.901 -17.45,11.514 0,5.873 4.219,10.381 15.386,14.231 l 12.895,4.387 z"
       id="path19"
       inkscape:connector-curvature="0"
       style="fill:#ffffff" /></g></svg>